<?xml version="1.0" encoding="utf-8"?>
<!-- Generator: Adobe Adobe Illustrator 24.2.0, SVG Export Plug-In . SVG Version: 6.00 Build 0)  -->
<svg version="1.1" xmlns="http://www.w3.org/2000/svg" xmlns:xlink="http://www.w3.org/1999/xlink" x="0px" y="0px"
	 viewBox="0 0 560 288" style="enable-background:new 0 0 560 288;" xml:space="preserve">
<style type="text/css">
	.st0{fill:#FFA233;}
	.st1{fill:#DB7E0B;stroke:#DB7E0B;stroke-miterlimit:10;}
	.st2{fill:#75B473;}
	.st3{fill:#B0D9B0;}
	.st4{fill:#141413;}
	.st5{fill:#737373;}
	.st6{fill:#B0B0B0;}
	.st7{fill:#0DE7FF;}
	.st8{fill:#993333;stroke:#591E1E;stroke-miterlimit:10;}
</style>
<g id="Layer_6">
</g>
<g id="Layer_17">
</g>
<g id="Layer_10">
</g>
<g id="Layer_18">
	<g>
		<path class="st0" d="M312.92,164.76c-0.75,0.96-1.5,1.91-2.25,2.87c-1.12,1.43-2.24,2.86-2.78,4.21c-0.66,1.64-0.43,3.1-0.52,4.63
			c-0.25,4.19-1.94,7.63-4.78,12.3c-0.78,1.28-2.58,3.82-3.91,5.15c-1.77,1.77-4.43,3.56-7.05,5.32c-1.84,1.24-3.81,2.54-5.74,3.25
			c-1.76,0.27-2.76-0.18-3.34-0.68c-2.96-2.56-0.61-6.68,0.23-10.31c1.1-4.74-0.31-9.13,4.76-14.41c2.4-2.5,6.18-5.11,7.57-7.5"/>
		<path class="st0" d="M301.57,164.48c-0.75,0.96-1.5,1.91-2.25,2.87c-1.12,1.43-2.24,2.86-2.78,4.21c-0.66,1.64-0.43,3.1-0.52,4.63
			c-0.25,4.19-2.94,8.88-5.78,13.55c-0.78,1.28-1.58,2.57-2.91,3.9c-1.77,1.77-4.43,3.56-7.05,5.32c-1.84,1.24-3.81,2.54-5.74,3.25
			c-1.76,0.27-2.76-0.18-3.34-0.68c-2.96-2.56-0.61-6.68,0.23-10.31c1.1-4.74-0.31-9.13,4.76-14.41c2.4-2.5,6.18-5.11,7.57-7.5"/>
		<path class="st0" d="M289.52,164.82c-0.75,0.96-1.5,1.91-2.25,2.87c-1.12,1.43-2.24,2.86-2.78,4.21c-0.66,1.64-0.43,3.1-0.52,4.63
			c-0.25,4.19-2.94,8.88-5.78,13.55c-0.78,1.28-1.58,2.57-2.91,3.9c-1.77,1.77-4.43,3.56-7.05,5.32c-1.84,1.24-3.81,2.54-5.74,3.25
			c-1.76,0.27-2.76-0.18-3.34-0.68c-2.96-2.56-0.61-6.68,0.23-10.31c1.1-4.74-0.31-9.13,4.76-14.41c2.4-2.5,6.18-5.11,7.57-7.5"/>
		<path class="st0" d="M278.9,163.53c-0.75,0.96-1.5,1.91-2.25,2.87c-1.12,1.43-2.24,2.86-2.78,4.21c-0.66,1.64-0.43,3.1-0.52,4.63
			c-0.25,4.19-2.94,8.88-5.78,13.55c-0.78,1.28-1.58,2.57-2.91,3.9c-1.77,1.77-4.43,3.56-7.05,5.32c-1.84,1.24-3.81,2.54-5.74,3.25
			c-1.76,0.27-2.76-0.18-3.34-0.68c-2.96-2.56-0.61-6.68,0.23-10.31c1.1-4.74-0.31-9.13,4.76-14.41c2.4-2.5,6.18-5.11,7.57-7.5"/>
	</g>
</g>
<g id="Layer_11">
	<g>
		<path class="st0" d="M79.82,141.94c15-8.45-6.81-28.16-16.01-35.13c-7.61-5.76-16.35-14.32-26.06-13.71
			c0.99,5.96,2.35,14.93,2.92,18.38c1.95,11.8,6.57,18.39,4.81,30.99"/>
		<path class="st0" d="M79.82,138.8c7.99,9.1-6.81,25.52-16.01,31.83c-7.61,5.22-16.35,12.98-26.06,12.42
			c0.99-5.4,2.35-13.53,2.92-16.66c1.95-10.7,3.95-17.88,5.48-28.68"/>
	</g>
</g>
<g id="Layer_13">
	<path class="st1" d="M55.64,119.54c-0.6,0.77,29.88,18.32,30.17,17.63C86.35,135.89,56.03,119.04,55.64,119.54z"/>
	<path class="st1" d="M282.8,193.47c0.46,0.65,15.68-28.38,15.24-28.72C297.22,164.12,282.5,193.05,282.8,193.47z"/>
	<path class="st1" d="M270.3,193.47c0.46,0.65,15.68-28.38,15.24-28.72C284.72,164.12,270,193.05,270.3,193.47z"/>
	<path class="st1" d="M258.21,193.23c0.46,0.69,15.86-30.06,15.42-30.41C272.82,162.15,257.91,192.78,258.21,193.23z"/>
	<g>
		<path class="st0" d="M308.69,109.19c-1.36-1.25-2.73-2.5-4.09-3.75c-2.03-1.86-4.08-3.74-5.2-5.59c-1.37-2.25-1.33-4.39-1.8-6.57
			c-1.3-5.99-5.76-12.96-11.85-18.52c-4.37-3.99-12.95-9.49-17.39-11.59c-3.11-1.47-6.44-3.01-9.58-3.7
			c-2.77-0.09-4.23,0.73-5.02,1.55c-4.03,4.19,0.49,9.71,2.58,14.8c2.72,6.63,1.48,13.19,10.46,19.93
			c4.25,3.19,10.66,6.3,13.32,9.51"/>
		<path class="st0" d="M291.19,111.51c-1.36-1.25-2.73-2.5-4.09-3.75c-2.03-1.86-4.08-3.74-5.2-5.59c-1.37-2.25-1.33-4.39-1.8-6.57
			c-1.3-5.99-6.45-12.28-11.85-18.52c-1.48-1.71-2.99-3.43-5.34-5.12c-3.12-2.25-7.61-4.37-12.05-6.47
			c-3.11-1.47-6.44-3.01-9.58-3.7c-2.77-0.09-4.23,0.73-5.02,1.55c-4.03,4.19,0.49,9.71,2.58,14.8c2.72,6.63,1.48,13.19,10.46,19.93
			c4.25,3.19,10.66,6.3,13.32,9.51"/>
		<path class="st0" d="M272.49,113.06c-1.36-1.25-2.73-2.5-4.09-3.75c-2.03-1.86-4.08-3.74-5.2-5.59c-1.37-2.25-1.33-4.39-1.8-6.57
			c-1.3-5.99-6.45-12.28-11.85-18.52c-1.48-1.71-2.99-3.43-5.34-5.12c-3.12-2.25-7.61-4.37-12.05-6.47
			c-3.11-1.47-6.44-3.01-9.58-3.7c-2.77-0.09-4.23,0.73-5.02,1.55c-4.03,4.19,0.49,9.71,2.58,14.8c2.72,6.63,1.48,13.19,10.46,19.93
			c4.25,3.19,10.66,6.3,13.32,9.51"/>
		<path class="st0" d="M256.35,116.71c-1.36-1.25-2.73-2.5-4.09-3.75c-2.03-1.86-4.08-3.74-5.2-5.59c-1.37-2.25-1.33-4.39-1.8-6.57
			c-1.3-5.99-6.45-12.28-11.85-18.52c-1.48-1.71-2.99-3.43-5.34-5.12c-3.12-2.25-7.61-4.37-12.05-6.47
			c-3.11-1.47-6.44-3.01-9.58-3.7c-2.77-0.09-4.23,0.73-5.02,1.55c-4.03,4.19,0.49,9.71,2.58,14.8c2.72,6.63,1.48,13.19,10.46,19.93
			c4.25,3.19,10.66,6.3,13.32,9.51"/>
		<path class="st1" d="M290.4,91.73c0.79-0.26-24.61-23.44-25.07-23.11C264.47,69.22,289.89,91.9,290.4,91.73z"/>
		<path class="st1" d="M274.3,94.44c0.77-0.3-25.76-22.17-26.21-21.82C247.27,73.26,273.8,94.63,274.3,94.44z"/>
		<path class="st1" d="M257.08,98.91c0.79-0.25-24.46-23.59-24.93-23.27C231.29,76.23,256.57,99.07,257.08,98.91z"/>
		<path class="st1" d="M239.16,103.29c0.8-0.19-22.87-25.01-23.35-24.73C214.92,79.08,238.64,103.41,239.16,103.29z"/>
	</g>
	<path class="st1" d="M56.26,135.63c-0.21,0.96,34.84,3.84,34.81,3.09C91.01,137.34,56.4,135.01,56.26,135.63z"/>
	<path class="st1" d="M56.26,151.59c0.28,0.94,32.26-13.7,31.87-14.34C87.4,136.07,56.07,150.98,56.26,151.59z"/>
</g>
<g id="Layer_1">
	<path class="st2" d="M520.92,140.5c-6.12-7.82-12.35-12.75-17.63-16.14c-6.37-4.09-5.89-3.56-13.36-7.62
		c-14.85-8.07-15.77-8.51-20.48-11.5c-6.44-4.09-14.93-8.86-17.28-9.75c-11.8-4.45-9.8-7.4-31.99-7.4l-0.03,0.98
		c-1.68-0.63-3.49-0.98-5.39-0.98l-297.1,0c-16.59,0-31.71,10.04-37.6,25.55c-1.3,3.43-1.84,6.28-1.84,7.85l1,32.02
		c0,5.57,9.03,26.45,29.56,29.31c0.9,0.12,1.8,0.27,2.7,0.27h303.29c0.82,0,1.61-0.08,2.39-0.2l-0.01,0.25
		c21.58,1.31,76.14-15.75,88.51-19.59c7.67-2.38-30.89-15.19-45.85-19.68C478.11,146.94,525.16,145.92,520.92,140.5z"/>
</g>
<g id="Layer_15">
</g>
<g id="Layer_12">
	<ellipse class="st3" cx="147.98" cy="170.74" rx="8" ry="4.75"/>
	<ellipse class="st3" cx="202.37" cy="156.49" rx="8" ry="4.75"/>
	<ellipse class="st3" cx="219.48" cy="170.74" rx="8" ry="4.75"/>
	<ellipse class="st3" cx="251.37" cy="175.49" rx="8" ry="4.75"/>
	<ellipse class="st3" cx="277.92" cy="168.52" rx="8" ry="4.75"/>
	<ellipse class="st3" cx="346.04" cy="173.27" rx="8" ry="4.75"/>
	<ellipse class="st3" cx="324.7" cy="161.24" rx="8" ry="4.75"/>
	<ellipse class="st3" cx="362.04" cy="151.74" rx="8" ry="4.75"/>
	<ellipse class="st3" cx="304.2" cy="173.27" rx="8" ry="4.75"/>
	<ellipse class="st3" cx="379.16" cy="165.99" rx="8" ry="4.75"/>
	<ellipse class="st3" cx="169.15" cy="159.57" rx="8" ry="4.75"/>
	<ellipse class="st3" cx="125.48" cy="152.29" rx="8" ry="4.75"/>
	<ellipse class="st3" cx="110.98" cy="170.74" rx="8" ry="4.75"/>
	<ellipse class="st3" cx="243.37" cy="156.49" rx="8" ry="4.75"/>
</g>
<g id="Layer_8">
	<circle class="st0" cx="442.82" cy="123.73" r="7"/>
	<circle class="st4" cx="444.07" cy="124.36" r="4.38"/>
</g>
<g id="Layer_9">
</g>
<g id="Layer_3">
	<circle class="st5" cx="196.15" cy="186.99" r="19"/>
	<circle class="st5" cx="196.15" cy="186.99" r="19"/>
	<circle class="st6" cx="196.15" cy="186.99" r="12.5"/>
	<circle class="st5" cx="398.16" cy="186.99" r="19"/>
	<circle class="st6" cx="398.16" cy="186.99" r="12.5"/>
</g>
<g id="Layer_4">
	<path class="st7" d="M106.98,115.71V99.25c0-2.08,1.69-3.77,3.77-3.77h33.47c2.08,0,3.77,1.69,3.77,3.77v16.47
		c0,2.08-1.69,3.77-3.77,3.77h-33.47C108.67,119.48,106.98,117.79,106.98,115.71z"/>
	<path class="st7" d="M155.15,115.71V99.25c0-2.08,1.69-3.77,3.77-3.77h33.47c2.08,0,3.77,1.69,3.77,3.77v16.47
		c0,2.08-1.69,3.77-3.77,3.77h-33.47C156.84,119.48,155.15,117.79,155.15,115.71z"/>
	<path class="st7" d="M202.37,115.71V99.25c0-2.08,1.69-3.77,3.77-3.77h33.47c2.08,0,3.77,1.69,3.77,3.77v16.47
		c0,2.08-1.69,3.77-3.77,3.77h-33.47C204.05,119.48,202.37,117.79,202.37,115.71z"/>
	<path class="st7" d="M296.2,115.71V99.25c0-2.08,1.69-3.77,3.77-3.77h33.47c2.08,0,3.77,1.69,3.77,3.77v16.47
		c0,2.08-1.69,3.77-3.77,3.77h-33.47C297.89,119.48,296.2,117.79,296.2,115.71z"/>
	<path class="st7" d="M343.48,115.71V99.25c0-2.08,1.69-3.77,3.77-3.77h33.47c2.08,0,3.77,1.69,3.77,3.77v16.47
		c0,2.08-1.69,3.77-3.77,3.77h-33.47C345.17,119.48,343.48,117.79,343.48,115.71z"/>
	<path class="st7" d="M249.42,115.71V99.25c0-2.08,1.69-3.77,3.77-3.77h33.47c2.08,0,3.77,1.69,3.77,3.77v16.47
		c0,2.08-1.69,3.77-3.77,3.77h-33.47C251.11,119.48,249.42,117.79,249.42,115.71z"/>
</g>
<g id="Layer_7">
	<path class="st0" d="M351.93,140.62c0.22-2.47-0.82-1.75-4.15-2.19c-24.49-3.24-48.75-6-73.33-9.43c-2.37-0.33-6.94-1.36-8.31,0.59
		c-0.73,1.05-1.23,1.57-1.63,2.77c-3.42,10.26-2.07,17.12,0.12,23.61c0.2,0.6,2.53,2.72,3.01,3.15c0.33,0.3,2.04,0.47,2.48,0.45
		c18.1-1.07,22.97-1.79,34.41-3.23c7.56-0.95,15.73-2.04,23.16-3.82C334.84,150.81,351.1,149.94,351.93,140.62z"/>
</g>
<g id="Layer_16">
	<g>
		<path class="st8" d="M394.29,87.96c15.78-9.12,16.86-9.06,37.7-5.62c20.85,3.44,20.05,6.52,31.17,17.59
			c2.9,2.89-16.72,10.08-37.56,6.64S391.86,89.36,394.29,87.96z"/>
		<path class="st8" d="M403.8,81.7c11.35-19.74,14.68-15.84,30.59-13.16c14.99,2.53,18.64-0.03,22.18,22.87
			c0.38,2.44,0.5,6.01-21.83,6.86c-3.84,0.15-9.95-1.27-13.55-2.6C401.41,88.34,402.87,83.31,403.8,81.7z"/>
	</g>
</g>
<g id="Layer_14">
	<path class="st1" d="M264.33,134.03c-1.3,0.7,68.26,7.62,68.86,7.04C334.32,140.02,265.18,133.58,264.33,134.03z"/>
	<path class="st1" d="M263.6,144.65c-1.24,0.75,68.34,0.21,68.9-0.36C333.55,143.23,264.41,144.16,263.6,144.65z"/>
	<path class="st1" d="M265.94,154.54c-1,0.78,59.29-6.34,59.72-6.9C326.45,146.6,266.59,154.03,265.94,154.54z"/>
</g>
</svg>
